<?xml version="1.0" encoding="UTF-8"?>
<svg version="1.1" xmlns="http://www.w3.org/2000/svg" width="512" height="512">
<path d="M0 0 C1.09496292 -0.0127597 2.18992584 -0.02551941 3.31806946 -0.03866577 C4.49209824 -0.04089142 5.66612701 -0.04311707 6.87573242 -0.04541016 C8.09266281 -0.05206696 9.3095932 -0.05872375 10.56340027 -0.06558228 C13.13632701 -0.07570019 15.70927995 -0.08039956 18.28222656 -0.08007812 C22.20641656 -0.08444508 26.12947615 -0.12075941 30.0534668 -0.15869141 C32.55671817 -0.16456102 35.05997487 -0.16852945 37.56323242 -0.17041016 C38.73118851 -0.18478119 39.89914459 -0.19915222 41.10249329 -0.21395874 C48.88430868 -0.17060245 54.42047874 0.77085663 60.44213867 6.07177734 C60.8881543 6.63896484 61.33416992 7.20615234 61.79370117 7.79052734 C62.48592773 8.64130859 62.48592773 8.64130859 63.19213867 9.50927734 C66.28175434 13.99610773 66.74654614 17.72175057 66.83276367 23.11865234 C66.8618129 24.24216095 66.8618129 24.24216095 66.89144897 25.3883667 C66.95105833 27.7723057 66.99755471 30.15629349 67.04370117 32.54052734 C67.08189818 34.16033965 67.12095092 35.78013202 67.16088867 37.39990234 C67.2567443 41.3632814 67.34084363 45.32675553 67.41870117 49.29052734 C68.04099609 49.48050293 68.66329102 49.67047852 69.30444336 49.86621094 C84.09395752 54.4387488 97.8133425 59.89432565 111.41870117 67.29052734 C115.24900539 64.11770057 118.87450441 60.89787195 122.32104492 57.31005859 C123.31587891 56.27655273 123.31587891 56.27655273 124.33081055 55.22216797 C125.68508056 53.80521237 127.03142917 52.38064472 128.36987305 50.94873047 C133.43185879 45.72963169 137.58113367 43.15243744 144.85229492 41.85693359 C154.13134155 41.83884578 160.50137703 45.81875623 167.00265503 52.17974854 C167.75612213 52.94333679 168.50958923 53.70692505 169.28588867 54.49365234 C170.08729279 55.29027283 170.8886969 56.08689331 171.71438599 56.90765381 C173.39606122 58.58594349 175.07150685 60.27049633 176.7409668 61.9609375 C179.28970274 64.53648684 181.86406993 67.0842213 184.44213867 69.63037109 C186.07916113 71.27069719 187.7146321 72.91257342 189.34838867 74.55615234 C190.4968074 75.68938934 190.4968074 75.68938934 191.66842651 76.84552002 C197.18070668 82.47990692 200.80537944 87.9780324 200.91870117 96.16552734 C200.26239632 108.47935358 191.35371645 115.7673847 182.84057617 123.58544922 C182.00268555 124.38144531 181.16479492 125.17744141 180.30151367 125.99755859 C179.53210449 126.70372314 178.76269531 127.4098877 177.9699707 128.13745117 C176.14144454 130.19630211 176.14144454 130.19630211 176.57592773 132.85351562 C177.733472 136.2007366 179.37222031 139.24311424 181.04370117 142.35302734 C186.4346749 152.71528142 190.69656173 163.91604453 193.41870117 175.29052734 C194.85536133 175.3045459 194.85536133 175.3045459 196.32104492 175.31884766 C199.90727614 175.35901072 203.49267297 175.4248386 207.07836914 175.49804688 C208.62415774 175.52610521 210.17008578 175.54739441 211.71606445 175.56152344 C229.23948161 175.73121437 229.23948161 175.73121437 236.44213867 182.07177734 C236.8881543 182.63896484 237.33416992 183.20615234 237.79370117 183.79052734 C238.25518555 184.35771484 238.71666992 184.92490234 239.19213867 185.50927734 C241.87048319 189.39884772 242.67287129 192.18548605 242.70922852 196.94189453 C242.72198822 198.07697449 242.73474792 199.21205444 242.74789429 200.38153076 C242.75123276 202.21593719 242.75123276 202.21593719 242.75463867 204.08740234 C242.76129547 205.35013977 242.76795227 206.6128772 242.77481079 207.91387939 C242.78493928 210.587098 242.79049281 213.25991 242.78930664 215.93310547 C242.78910398 219.34039681 242.81635326 222.74684907 242.85085106 226.15394211 C242.87859329 229.42339643 242.87727293 232.69284641 242.87963867 235.96240234 C242.8940097 237.17724304 242.90838074 238.39208374 242.92318726 239.64373779 C242.88090275 247.53052422 242.11760862 253.33994166 236.52416992 259.31396484 C235.89124023 259.75998047 235.25831055 260.20599609 234.60620117 260.66552734 C233.6684082 261.35775391 233.6684082 261.35775391 232.71166992 262.06396484 C227.43960068 264.88411772 222.07390394 265.55262513 216.17260742 265.70458984 C215.18864235 265.73363907 215.18864235 265.73363907 214.18479919 265.76327515 C212.11705989 265.82241644 210.04926288 265.86918963 207.98120117 265.91552734 C206.56776723 265.95376768 205.15435509 265.9928228 203.7409668 266.03271484 C200.30041265 266.12806186 196.85969278 266.21233021 193.41870117 266.29052734 C192.96430664 267.84513672 192.96430664 267.84513672 192.50073242 269.43115234 C192.07845116 270.80122044 191.6552239 272.17099721 191.23120117 273.54052734 C191.03461914 274.22244141 190.83803711 274.90435547 190.63549805 275.60693359 C189.16072219 280.28083863 187.53130684 282.64061875 183.41870117 285.29052734 C179.89513257 287.05231165 176.14864931 286.21174079 172.41870117 285.29052734 C168.73438077 282.75755707 167.64077481 281.21250131 166.59448242 276.86865234 C165.98925184 270.9955001 167.89842682 265.66093313 169.60620117 260.10302734 C169.91106445 259.03632813 170.21592773 257.96962891 170.5300293 256.87060547 C173.4309317 247.14619679 173.4309317 247.14619679 177.41870117 243.29052734 C180.85555838 241.57209874 184.80230248 242.17076822 188.58276367 242.19287109 C189.38673584 242.19387817 190.19070801 242.19488525 191.01904297 242.19592285 C194.02727684 242.2011617 197.03549041 242.21512294 200.04370117 242.22802734 C206.76745117 242.24865234 213.49120117 242.26927734 220.41870117 242.29052734 C220.41870117 228.10052734 220.41870117 213.91052734 220.41870117 199.29052734 C208.22794568 199.40890816 208.22794568 199.40890816 196.03759766 199.56079102 C194.49666979 199.569562 192.95573491 199.57720449 191.41479492 199.58349609 C190.23778015 199.60651794 190.23778015 199.60651794 189.0369873 199.63000488 C183.75435105 199.63249005 180.09319102 198.8100946 175.41870117 196.29052734 C172.21773397 191.61980037 171.15470692 186.02429469 169.73120117 180.60302734 C165.61629462 165.70925054 160.07017292 151.93579196 151.56811523 138.98291016 C148.79976705 134.62270739 147.58599591 131.60514619 148.41870117 126.29052734 C151.04116709 121.86256544 154.18183674 118.25379664 157.84057617 114.67333984 C158.59785004 113.92031082 158.59785004 113.92031082 159.37042236 113.15206909 C160.96516703 111.56841319 162.56676161 109.99190147 164.16870117 108.41552734 C165.25900779 107.33526515 166.34885607 106.25454015 167.43823242 105.17333984 C170.09311451 102.54036783 172.7541822 99.91375072 175.41870117 97.29052734 C173.78092072 93.09426825 170.68546935 90.30375949 167.53588867 87.21240234 C166.67448776 86.35524628 166.67448776 86.35524628 165.79568481 85.48077393 C163.96634307 83.6625979 162.13015924 81.85151243 160.29370117 80.04052734 C159.04975343 78.80661405 157.80625847 77.57224413 156.56323242 76.33740234 C153.5202775 73.31645992 150.47116863 70.30185642 147.41870117 67.29052734 C140.81575142 72.75776974 134.89050917 78.78376888 128.91479492 84.92138672 C128.15038086 85.69675781 127.3859668 86.47212891 126.59838867 87.27099609 C125.57334229 88.32130005 125.57334229 88.32130005 124.52758789 89.39282227 C120.46564105 93.04801013 117.15594722 94.90719043 111.5559082 94.67773438 C107.52778733 93.94794231 104.30708078 91.84266695 100.85620117 89.72802734 C99.26056638 88.80136072 97.66287902 87.87822007 96.06323242 86.95849609 C95.2764209 86.50265137 94.48960937 86.04680664 93.67895508 85.57714844 C83.23298438 79.63091107 72.46493654 75.82110562 60.94995117 72.55224609 C59.79172852 72.22039307 59.79172852 72.22039307 58.61010742 71.88183594 C56.63701638 71.34943548 54.63760062 70.91701142 52.63745117 70.49755859 C48.66245635 69.00693553 46.44467375 66.95791649 44.41870117 63.29052734 C43.76641632 60.16042622 43.83257871 57.14066944 43.93041992 53.95458984 C43.93545532 53.1743042 43.94049072 52.39401855 43.94567871 51.59008789 C43.97167741 48.69818954 44.04148445 45.80681836 44.10620117 42.91552734 C44.26088867 33.20115234 44.26088867 33.20115234 44.41870117 23.29052734 C29.89870117 23.29052734 15.37870117 23.29052734 0.41870117 23.29052734 C0.61616845 36.18485772 0.61616845 36.18485772 0.86914062 49.078125 C0.88375391 50.70359654 0.8964926 52.32908647 0.90698242 53.95458984 C0.93256226 54.78756592 0.95814209 55.62054199 0.98449707 56.47875977 C0.98755813 60.58914727 0.76441938 63.42999987 -1.78613281 66.75488281 C-4.5816182 69.29081706 -6.18729729 70.28453388 -9.79223633 71.19677734 C-10.78223633 71.46216309 -11.77223633 71.72754883 -12.79223633 72.00097656 C-13.83637695 72.26152832 -14.88051758 72.52208008 -15.95629883 72.79052734 C-18.13219861 73.38167715 -20.30669178 73.9780291 -22.47973633 74.57958984 C-23.53128906 74.86866211 -24.5828418 75.15773438 -25.66625977 75.45556641 C-38.82666935 79.22513096 -50.79962877 85.70906416 -62.30395508 93.02099609 C-65.74082141 94.93691643 -68.83050263 95.26295599 -72.58129883 94.29052734 C-75.59080804 92.29184565 -78.02871723 89.83289861 -80.58129883 87.29052734 C-81.84240559 86.19588667 -83.11269834 85.1116996 -84.39379883 84.04052734 C-86.55605859 82.21210816 -88.69045435 80.40282208 -90.58129883 78.29052734 C-90.58129883 77.63052734 -90.58129883 76.97052734 -90.58129883 76.29052734 C-91.24129883 76.29052734 -91.90129883 76.29052734 -92.58129883 76.29052734 C-94.20629883 74.91552734 -94.20629883 74.91552734 -95.58129883 73.29052734 C-95.58129883 72.63052734 -95.58129883 71.97052734 -95.58129883 71.29052734 C-96.17942383 71.00177734 -96.77754883 70.71302734 -97.39379883 70.41552734 C-99.58129883 69.29052734 -99.58129883 69.29052734 -102.58129883 67.29052734 C-111.82129883 76.53052734 -121.06129883 85.77052734 -130.58129883 95.29052734 C-128.55183172 99.34946157 -126.64474284 101.43152746 -123.42504883 104.57177734 C-122.92211304 105.06713989 -122.41917725 105.56250244 -121.90100098 106.07287598 C-120.29917532 107.65034682 -118.69108852 109.22118704 -117.08129883 110.79052734 C-114.96091375 112.85763322 -112.84728476 114.93130996 -110.73754883 117.00927734 C-109.79717773 117.92644531 -108.85680664 118.84361328 -107.88793945 119.78857422 C-105.29443031 122.60168617 -103.69760202 124.52027259 -103.44433594 128.37524414 C-104.06168945 134.30090748 -105.87752958 138.18557114 -109.14379883 143.10302734 C-117.50489006 156.54199595 -122.69878317 171.05437298 -126.41625977 186.40087891 C-127.76861541 191.66094904 -129.14210938 194.81787992 -133.58129883 198.29052734 C-137.5287258 199.60633633 -141.29216932 199.41363773 -145.40551758 199.38818359 C-146.16916626 199.38717651 -146.93281494 199.38616943 -147.71960449 199.38513184 C-150.56935124 199.37990398 -153.41907656 199.3659427 -156.26879883 199.35302734 C-162.64192383 199.33240234 -169.01504883 199.31177734 -175.58129883 199.29052734 C-175.58129883 213.48052734 -175.58129883 227.67052734 -175.58129883 242.29052734 C-162.31302554 242.13245372 -162.31302554 242.13245372 -149.04541016 241.93017578 C-147.37639388 241.91848832 -145.70736617 241.90829663 -144.03833008 241.89990234 C-143.17864624 241.87943848 -142.3189624 241.85897461 -141.43322754 241.83789062 C-137.35870009 241.83552275 -135.14680992 241.95205903 -131.58398438 244.08447266 C-127.82873372 248.2210623 -126.99855097 253.75039976 -125.56958008 259.02490234 C-121.37940423 274.15479578 -115.25331649 287.97473663 -107.24536133 301.47021484 C-104.30431634 306.45480283 -103.09770325 309.20167028 -103.91915894 315.00509644 C-105.07382856 318.99053468 -107.60691549 321.30745201 -110.58520508 324.07568359 C-111.18308334 324.66224228 -111.78096161 325.24880096 -112.3969574 325.85313416 C-114.2945022 327.70620755 -116.21799774 329.5293831 -118.14379883 331.35302734 C-119.44184795 332.61091225 -120.73809298 333.87066171 -122.0324707 335.13232422 C-125.19495456 338.20701796 -128.38101208 341.25522018 -131.58129883 344.29052734 C-127.87114356 348.71713444 -124.05981589 352.9326761 -119.96411133 357.00537109 C-119.46209198 357.50597549 -118.96007263 358.0065799 -118.44284058 358.52235413 C-116.86636212 360.09331332 -115.2864131 361.66072611 -113.70629883 363.22802734 C-112.62533609 364.30396461 -111.544605 365.38013465 -110.46411133 366.45654297 C-107.83917242 369.07056026 -105.21111254 371.6814133 -102.58129883 374.29052734 C-95.48065104 368.44748747 -89.17639754 361.88590024 -82.78833008 355.28271484 C-81.50635742 353.97947266 -81.50635742 353.97947266 -80.19848633 352.64990234 C-79.43133301 351.86067383 -78.66417969 351.07144531 -77.8737793 350.25830078 C-74.42748387 347.30013878 -71.83051869 346.25784858 -67.29614258 346.37646484 C-62.68893366 347.51009985 -59.18951709 349.49807165 -55.14379883 351.91552734 C-41.73686283 359.58971986 -28.71776651 364.86958919 -13.7409668 368.80688477 C-4.40960243 371.33327036 -4.40960243 371.33327036 -0.58129883 375.29052734 C1.13712978 378.72738455 0.53846029 382.67412865 0.51635742 386.45458984 C0.51535034 387.25856201 0.51434326 388.06253418 0.51330566 388.89086914 C0.50806681 391.89910301 0.49410558 394.90731659 0.48120117 397.91552734 C0.46057617 404.63927734 0.43995117 411.36302734 0.41870117 418.29052734 C14.93870117 418.29052734 29.45870117 418.29052734 44.41870117 418.29052734 C44.26062755 405.02225406 44.26062755 405.02225406 44.05834961 391.75463867 C44.04666215 390.08562239 44.03647046 388.41659468 44.02807617 386.74755859 C44.0076123 385.88787476 43.98714844 385.02819092 43.96606445 384.14245605 C43.96367102 380.02394882 44.07029374 377.85801646 46.26953125 374.27587891 C48.88646821 371.85841539 50.9220335 371.14069242 54.35620117 370.22802734 C55.50217773 369.91349609 56.6481543 369.59896484 57.82885742 369.27490234 C59.60583008 368.78763672 59.60583008 368.78763672 61.41870117 368.29052734 C63.71117576 367.52210011 66.0028725 366.75134754 68.29370117 365.97802734 C73.05190031 364.52763652 76.55611847 363.66966644 81.41870117 365.29052734 C84.37363086 367.12915026 86.0188278 368.61801304 87.79370117 371.60302734 C88.86446753 376.20732267 88.33616899 379.81213242 85.84057617 383.83349609 C82.83940314 386.87823454 79.79475886 387.93413597 75.79370117 389.10302734 C75.11307617 389.31894531 74.43245117 389.53486328 73.73120117 389.75732422 C68.80548193 391.29052734 68.80548193 391.29052734 66.41870117 391.29052734 C66.45012207 392.77262695 66.45012207 392.77262695 66.48217773 394.28466797 C66.55507125 397.98210926 66.60067811 401.67948821 66.63842773 405.37744141 C66.6584317 406.97195143 66.68564418 408.56638913 66.72045898 410.16064453 C67.10606713 428.28422721 67.10606713 428.28422721 60.52416992 435.31396484 C59.89124023 435.75998047 59.25831055 436.20599609 58.60620117 436.66552734 C57.98100586 437.12701172 57.35581055 437.58849609 56.71166992 438.06396484 C50.05941329 441.62241218 43.49317397 441.5978424 36.11401367 441.59130859 C34.49618484 441.59773628 34.49618484 441.59773628 32.84567261 441.60429382 C30.57135722 441.61001913 28.29702352 441.6105507 26.02270508 441.60620117 C22.5619347 441.60304398 19.10202214 441.62651433 15.64135742 441.65185547 C13.42391058 441.65412906 11.20646145 441.65483168 8.98901367 441.65380859 C7.96373566 441.66301834 6.93845764 441.67222809 5.8821106 441.68171692 C-1.93898209 441.63189309 -8.30795282 440.45217093 -14.89379883 436.10302734 C-22.94961161 427.6725256 -22.06944442 418.69579805 -21.83129883 407.79052734 C-21.81120666 406.18898713 -21.79296068 404.58742264 -21.77661133 402.98583984 C-21.73282153 399.08679653 -21.66394604 395.18893268 -21.58129883 391.29052734 C-22.13889893 391.17588135 -22.69649902 391.06123535 -23.27099609 390.94311523 C-28.47880841 389.83496486 -33.49719101 388.49541907 -38.51879883 386.72802734 C-39.23318115 386.47988281 -39.94756348 386.23173828 -40.68359375 385.97607422 C-47.32011322 383.57301018 -53.5300851 380.44132115 -59.69238281 377.01098633 C-60.40467041 376.62885986 -61.11695801 376.2467334 -61.85083008 375.85302734 C-62.47578369 375.50369141 -63.1007373 375.15435547 -63.74462891 374.79443359 C-65.6149613 374.09919738 -65.6149613 374.09919738 -67.56152344 374.94335938 C-69.90592889 376.50705202 -71.68652536 378.23880194 -73.62817383 380.28271484 C-74.39129883 381.07033203 -75.15442383 381.85794922 -75.94067383 382.66943359 C-77.52305102 384.32162154 -79.10124821 385.97782394 -80.67504883 387.63818359 C-86.09789024 393.21570337 -90.88530583 397.5533319 -98.74145508 398.78662109 C-115.48460559 398.44860325 -124.94843608 386.15501809 -136.16943359 375.05249023 C-137.32266891 373.91590931 -138.48125616 372.78473424 -139.64501953 371.65893555 C-154.0813713 357.68768546 -154.0813713 357.68768546 -156.21020508 347.18896484 C-156.18829102 346.35623047 -156.16637695 345.52349609 -156.14379883 344.66552734 C-156.14508789 343.82763672 -156.14637695 342.98974609 -156.14770508 342.12646484 C-154.22937548 332.52158702 -147.61701672 326.83830739 -140.83129883 320.29052734 C-139.83688178 319.31621263 -138.84338388 318.34095887 -137.85083008 317.36474609 C-135.43650778 314.99730384 -133.01333063 312.63975031 -130.58129883 310.29052734 C-131.06598633 309.37916016 -131.55067383 308.46779297 -132.05004883 307.52880859 C-136.18199293 299.60075781 -139.78781147 291.59103436 -142.95629883 283.22802734 C-143.28952148 282.34864502 -143.62274414 281.4692627 -143.96606445 280.56323242 C-145.7187696 275.84991317 -147.27656045 271.14705355 -148.58129883 266.29052734 C-149.44295654 266.27594482 -150.30461426 266.2613623 -151.19238281 266.24633789 C-154.43004257 266.18479865 -157.66710811 266.11055952 -160.90429688 266.02807617 C-162.29774245 265.99509426 -163.69131305 265.96698168 -165.08496094 265.9440918 C-174.54737544 265.78451753 -182.82206145 265.43341995 -190.89379883 260.10302734 C-197.91045459 252.7600155 -198.18786438 245.83780562 -198.14770508 236.10302734 C-198.15390366 234.84594971 -198.16010223 233.58887207 -198.16648865 232.29370117 C-198.17357192 229.64395933 -198.17240297 226.99574704 -198.15771484 224.34619141 C-198.14052009 220.97011869 -198.16405204 217.59574704 -198.19920444 214.21986389 C-198.22658398 210.97256639 -198.21643583 207.72540758 -198.21020508 204.47802734 C-198.22346329 203.27573486 -198.2367215 202.07344238 -198.25038147 200.8347168 C-198.16123304 192.76300566 -196.78546255 187.59820769 -191.10328674 181.77612305 C-185.75585359 176.99573386 -180.85735531 175.9923554 -173.87426758 175.87646484 C-172.78617546 175.84741562 -172.78617546 175.84741562 -171.67610168 175.81777954 C-169.3737846 175.75830626 -167.07141664 175.71172889 -164.76879883 175.66552734 C-163.20172051 175.62731777 -161.63466252 175.58826432 -160.06762695 175.54833984 C-156.23901731 175.45263171 -152.41030941 175.36848287 -148.58129883 175.29052734 C-148.14394409 173.77072266 -148.14394409 173.77072266 -147.69775391 172.22021484 C-145.28648572 163.94471114 -142.35900261 156.0242229 -138.95629883 148.10302734 C-138.38020874 146.75881714 -138.38020874 146.75881714 -137.79248047 145.38745117 C-136.2702093 141.90066082 -134.8026909 138.63580477 -132.74536133 135.42724609 C-131.39488097 133.41970267 -131.39488097 133.41970267 -131.75146484 131.42138672 C-132.85782338 128.58046372 -134.47384823 127.14285679 -136.69458008 125.06005859 C-137.53053711 124.25632812 -138.36649414 123.45259766 -139.2277832 122.62451172 C-140.9891965 120.95858896 -142.75475628 119.29703823 -144.5246582 117.64013672 C-150.48048903 111.89456546 -154.60359879 106.77950475 -156.07739258 98.50537109 C-156.05805664 97.75384766 -156.0387207 97.00232422 -156.01879883 96.22802734 C-156.01750977 95.47392578 -156.0162207 94.71982422 -156.01489258 93.94287109 C-154.57589662 85.14036431 -150.44194528 80.40793582 -144.25708008 74.30224609 C-143.4368486 73.47723099 -142.61661713 72.65221588 -141.77153015 71.80220032 C-140.04018843 70.06746782 -138.30256306 68.33898662 -136.55908203 66.61645508 C-133.90226571 63.98640892 -131.27317301 61.33076257 -128.64575195 58.67138672 C-126.95529542 56.98423442 -125.26328842 55.29863392 -123.56958008 53.61474609 C-122.39882683 52.42881111 -122.39882683 52.42881111 -121.204422 51.21891785 C-115.6851115 45.8155149 -110.22847665 41.86878695 -102.14379883 41.85302734 C-91.15816121 42.53643402 -84.7872624 49.43887871 -77.51879883 57.04052734 C-76.54928368 58.03517627 -75.57858808 59.028676 -74.60668945 60.02099609 C-72.25307077 62.43316251 -69.91198651 64.85623229 -67.58129883 67.29052734 C-66.43016602 66.72205078 -65.2790332 66.15357422 -64.09301758 65.56787109 C-50.6284123 59.00537431 -37.01389878 53.35336732 -22.58129883 49.29052734 C-22.57718994 48.30246094 -22.57308105 47.31439453 -22.56884766 46.29638672 C-22.54692448 42.59827919 -22.49250175 38.90121587 -22.42871094 35.20361328 C-22.4056449 33.60931476 -22.39116216 32.01486632 -22.38574219 30.42041016 C-22.34612537 20.68076762 -22.2713614 13.05863903 -15.10400391 5.79296875 C-10.46353192 1.5951905 -6.17385377 0.04904846 0 0 Z " fill="#000000" transform="translate(233.581298828125,30.70947265625)"/>
<path d="M0 0 C0.75539063 0.61359375 1.51078125 1.2271875 2.2890625 1.859375 C19.38614473 16.0775671 29.59571754 38.04817293 32.7265625 59.81640625 C33.51465866 68.9920973 33.21509796 78.15239572 32.375 87.3125 C31.49141281 98.65620024 33.44738324 109.12502516 40.7245636 118.13526917 C47.22624036 125.33156888 54.08140885 132.14199044 60.99110985 138.9440136 C63.89922802 141.80945441 66.79751265 144.68476061 69.69653034 147.55940342 C75.07078284 152.8882308 80.44891336 158.21299745 85.84350586 163.52124023 C89.61904198 167.23709417 93.38199742 170.96529677 97.13717079 174.7017231 C98.55945744 176.11234715 99.98624442 177.51845 101.41777611 178.91969109 C111.39093776 188.68695213 120.9862479 198.28981002 122 213 C122.10457868 225.10124756 119.14075184 234.94170539 111 244 C103.00838478 252.12324182 93.56167561 255.82588953 82.25 256.375 C68.05570732 256.02124816 58.53378585 248.90515569 49.02416992 239.20361328 C48.05405724 238.22671036 48.05405724 238.22671036 47.06434631 237.23007202 C45.67301954 235.82786309 44.28398372 234.42337788 42.89705467 233.016819 C40.69326769 230.78259769 38.48263856 228.55535239 36.27009583 226.32980347 C29.98478528 220.00497008 23.71232408 213.6674497 17.44311523 207.32666016 C13.59536208 203.43592814 9.74011298 199.55274652 5.88051796 195.67376328 C4.42130159 194.20405954 2.96500104 192.73145424 1.51183128 191.25577164 C-16.82945113 172.3274037 -16.82945113 172.3274037 -41.6875 165.6875 C-45.99652489 165.85611402 -50.26891354 166.30602278 -54.5546875 166.76953125 C-78.39311574 169.01628407 -103.40267044 161.33962595 -122.0625 146.4375 C-123.72674975 144.97908506 -125.37430197 143.50126856 -127 142 C-127.70253906 141.37738281 -128.40507812 140.75476563 -129.12890625 140.11328125 C-146.5798965 123.82341364 -155.98065276 99.87727114 -157.1875 76.34375 C-157.38833585 64.19318086 -155.88591809 53.03465378 -152.125 41.5 C-151.75834229 40.36921021 -151.75834229 40.36921021 -151.38427734 39.21557617 C-149.62689907 34.10730346 -147.61876519 29.05760122 -143.25 25.625 C-139.68679914 24.63522198 -136.59916014 24.14752444 -133 25 C-131.14601135 26.27485657 -131.14601135 26.27485657 -129.28735352 27.98168945 C-128.59175323 28.61918121 -127.89615295 29.25667297 -127.17947388 29.91348267 C-123.43678008 33.49654717 -119.78135611 37.15759341 -116.15234375 40.85546875 C-114.47880569 42.54651107 -112.80496864 44.23725754 -111.13085938 45.92773438 C-108.52522306 48.56437552 -105.92200257 51.20327249 -103.32397461 53.84741211 C-100.79439221 56.41941238 -98.25538128 58.98179521 -95.71484375 61.54296875 C-94.94486557 62.33156784 -94.17488739 63.12016693 -93.38157654 63.93266296 C-88.66503844 68.67138436 -84.11708474 73.17779218 -77.33984375 74.53125 C-71.74072305 74.45841591 -68.37335216 73.84001653 -64 70 C-61.1449128 66.75110767 -60.11343446 64.15703148 -59.6875 59.8125 C-60.48478039 50.08567927 -67.09015561 44.38163141 -73.7265625 37.91796875 C-74.68107522 36.97347834 -75.63462164 36.02801048 -76.58724976 35.08161926 C-79.07996998 32.60969076 -81.58404148 30.14960704 -84.09124756 27.69238281 C-88.11340633 23.74593262 -92.11668404 19.78030297 -96.12217331 15.81694984 C-97.5183587 14.43841087 -98.91913593 13.06452752 -100.31997681 11.6907196 C-101.59172256 10.43845329 -101.59172256 10.43845329 -102.88916016 9.16088867 C-104.01023666 8.06124031 -104.01023666 8.06124031 -105.15396118 6.93937683 C-108.24700165 3.6899484 -109.32334787 1.54335874 -109.4375 -2.875 C-109.33425014 -6.43195756 -109.15877059 -7.75363185 -107.1875 -10.8125 C-75.64064102 -32.46230518 -27.52978636 -24.53531837 0 0 Z M-74 1 C-74.66 1.66 -75.32 2.32 -76 3 C-75.12263184 3.8564209 -74.24526367 4.7128418 -73.34130859 5.59521484 C-70.05452318 8.80899475 -66.78148998 12.03649145 -63.51220703 15.26806641 C-62.10179609 16.65849894 -60.68779878 18.04530413 -59.27001953 19.42822266 C-47.04552497 31.35981178 -37.28716308 42.0079327 -36.5625 59.9375 C-36.89279215 71.00946727 -41.02248396 79.82131756 -48.625 87.6796875 C-57.53158817 95.9677626 -67.85476672 97.5700931 -79.59375 97.33984375 C-89.5062123 96.82676312 -97.89818908 91.69695709 -105 85 C-105.495 84.01 -105.495 84.01 -106 83 C-106.66 83 -107.32 83 -108 83 C-108.33 82.01 -108.66 81.02 -109 80 C-110.55705194 78.42159428 -110.55705194 78.42159428 -112.5 76.875 C-118.22838791 72.01205199 -123.76242027 66.88530018 -128.375 60.9375 C-129.179375 59.9784375 -129.179375 59.9784375 -130 59 C-130.99 59 -131.98 59 -133 59 C-136.49414829 77.78104704 -132.46082438 96.92767898 -121.75 112.6875 C-109.87233837 129.42285865 -92.99139118 139.58097179 -72.8828125 143.40234375 C-66.21711322 144.37944425 -59.42211408 144.36650832 -52.75 143.5 C-36.0997381 141.54629151 -20.35218533 144.06602408 -6 153 C2.29127058 159.61743441 9.61779231 167.52269345 17.06627464 175.05224037 C19.21230987 177.22058329 21.36253062 179.38469506 23.51399231 181.5476532 C29.62330913 187.69031135 35.72822812 193.83729055 41.82299805 199.99438477 C45.56927029 203.77836876 49.32287487 207.55494587 53.08123207 211.32692528 C54.50451158 212.75823049 55.925015 214.19230203 57.34261131 215.62923622 C59.32331972 217.63652122 61.31323522 219.63424046 63.30541992 221.63012695 C64.16982697 222.51306931 64.16982697 222.51306931 65.05169678 223.41384888 C70.46935142 228.80514048 76.05316743 232.85809228 84 233 C89.78945278 231.20327327 93.95632481 228.40612532 97.11328125 223.14453125 C98.13279146 220.67884355 98.33351015 218.78864864 98.375 216.125 C98.40335938 215.30257812 98.43171875 214.48015625 98.4609375 213.6328125 C97.3268773 207.15521442 91.77730933 202.52110775 87.26293945 198.11523438 C86.59406204 197.45409637 85.92518463 196.79295837 85.23603821 196.11178589 C83.78896766 194.68230947 82.33969321 193.25506133 80.88845253 191.82981873 C78.58203329 189.56303909 76.2833957 187.28863299 73.98686218 185.01184082 C67.45812303 178.54091212 60.92002755 172.07956984 54.36645508 165.63378906 C50.35031285 161.68261845 46.34690007 157.71890749 42.35088158 153.74739075 C40.8363357 152.24697534 39.31715352 150.7512232 37.79302406 149.26054382 C22.10534384 133.91221884 10.42483748 118.75068368 9 96 C9.05099372 91.00261576 9.4784907 86.0254173 9.85644531 81.04443359 C11.38405061 59.28904793 5.32209627 40.14582375 -8.6875 23.375 C-22.96587891 8.08648721 -40.8404244 1.25012436 -61.38671875 0.09375 C-65.76688181 -0.01989747 -69.69307717 0.19701439 -74 1 Z " fill="#000000" transform="translate(302,163)"/>
</svg>
